<svg width="16" height="17" viewBox="0 0 16 17" fill="none" xmlns="http://www.w3.org/2000/svg">
<g id="Frame">
<path id="Vector" d="M2.4694 9.96927L7.4694 4.96927C7.53908 4.89935 7.62187 4.84387 7.71304 4.80602C7.8042 4.76816 7.90194 4.74867 8.00065 4.74867C8.09936 4.74867 8.1971 4.76816 8.28827 4.80602C8.37943 4.84387 8.46222 4.89935 8.5319 4.96927L13.5319 9.96927C13.6728 10.1102 13.752 10.3013 13.752 10.5005C13.752 10.6998 13.6728 10.8909 13.5319 11.0318C13.391 11.1727 13.1999 11.2518 13.0007 11.2518C12.8014 11.2518 12.6103 11.1727 12.4694 11.0318L8.00003 6.56239L3.53065 11.0324C3.38976 11.1733 3.19866 11.2524 2.9994 11.2524C2.80015 11.2524 2.60905 11.1733 2.46815 11.0324C2.32726 10.8915 2.2481 10.7004 2.2481 10.5011C2.2481 10.3019 2.32726 10.1108 2.46815 9.96989L2.4694 9.96927Z" fill="black"/>
</g>
</svg>
