<svg width="16" height="17" viewBox="0 0 16 17" fill="none" xmlns="http://www.w3.org/2000/svg">
<g id="Frame">
<path id="Vector" d="M6.53025 2.9694L11.5302 7.9694C11.6002 8.03908 11.6556 8.12187 11.6935 8.21304C11.7314 8.3042 11.7508 8.40194 11.7508 8.50065C11.7508 8.59936 11.7314 8.6971 11.6935 8.78827C11.6556 8.87943 11.6002 8.96222 11.5302 9.0319L6.53025 14.0319C6.38935 14.1728 6.19825 14.252 5.999 14.252C5.79974 14.252 5.60864 14.1728 5.46775 14.0319C5.32685 13.891 5.2477 13.6999 5.2477 13.5007C5.2477 13.3014 5.32685 13.1103 5.46775 12.9694L9.93712 8.50003L5.46712 4.03065C5.32623 3.88976 5.24707 3.69866 5.24707 3.4994C5.24707 3.30015 5.32623 3.10905 5.46712 2.96815C5.60802 2.82726 5.79911 2.7481 5.99837 2.7481C6.19763 2.7481 6.38873 2.82726 6.52962 2.96815L6.53025 2.9694Z" fill="black" fill-opacity="0.6"/>
</g>
</svg>
